<?xml version="1.0" encoding="utf-8"?>
<!-- Generator: Adobe Illustrator 15.0.2, SVG Export Plug-In . SVG Version: 6.00 Build 0)  -->
<!DOCTYPE svg PUBLIC "-//W3C//DTD SVG 1.0//EN" "http://www.w3.org/TR/2001/REC-SVG-20010904/DTD/svg10.dtd">
<svg version="1.0"
	 id="svg5692" xmlns:inkscape="http://www.inkscape.org/namespaces/inkscape" xmlns:sodipodi="http://sodipodi.sourceforge.net/DTD/sodipodi-0.dtd" inkscape:export-filename="/mnt/home1/robert/svn/graphics/trunk/toolbar-icons/24x24/label-rotate.png" inkscape:export-xdpi="90" inkscape:export-ydpi="90" xmlns:svg="http://www.w3.org/2000/svg" sodipodi:docname="mActionRotateLabel.svg" inkscape:version="0.48.2 r9819" xmlns:rdf="http://www.w3.org/1999/02/22-rdf-syntax-ns#" xmlns:cc="http://creativecommons.org/ns#" xmlns:dc="http://purl.org/dc/elements/1.1/"
	 xmlns="http://www.w3.org/2000/svg" xmlns:xlink="http://www.w3.org/1999/xlink" x="0px" y="0px" width="24px" height="24px"
	 viewBox="13.258 -2.144 24 24" enable-background="new 13.258 -2.144 24 24" xml:space="preserve">
<line fill="none" stroke="#828282" stroke-linecap="round" stroke-linejoin="round" stroke-miterlimit="10" x1="18.355" y1="7.793" x2="31.977" y2="10.181"/>
<line fill="none" stroke="#828282" stroke-linecap="round" stroke-linejoin="round" stroke-miterlimit="10" x1="31.977" y1="10.181" x2="18.441" y2="19.638"/>
<g>
	<g>
		<path fill="#FFFFFF" d="M17.762,8.832c-0.321,0-0.613-0.108-0.801-0.296c-0.13-0.13-0.198-0.287-0.197-0.454l-0.001-4.364
			c0.002-0.421,0.44-0.75,0.999-0.75c0.562,0,1.001,0.33,1.001,0.75v4.365c0,0.174-0.079,0.343-0.222,0.475
			c-0.188,0.174-0.471,0.274-0.776,0.274H17.762z"/>
		<path fill="#434343" d="M17.764,3.218c0.414,0,0.749,0.224,0.749,0.5v4.365c0,0.108-0.053,0.209-0.142,0.291
			c-0.136,0.125-0.356,0.208-0.606,0.208c-0.001,0-0.001,0-0.002,0c-0.415,0-0.75-0.222-0.749-0.499l-0.001-4.365
			c0.001-0.276,0.335-0.5,0.749-0.5H17.764L17.764,3.218 M17.764,2.718L17.764,2.718c-0.7,0-1.249,0.438-1.251,0.998l0.001,4.367
			c-0.001,0.23,0.095,0.454,0.27,0.629c0.234,0.235,0.591,0.37,0.979,0.37c0.37,0,0.715-0.125,0.948-0.341
			c0.194-0.179,0.302-0.413,0.302-0.658V3.718C19.013,3.158,18.464,2.718,17.764,2.718L17.764,2.718z"/>
	</g>
	<path fill="#D4D4D4" d="M18.371,8.374c-0.136,0.126-0.357,0.208-0.608,0.208c-0.133,0-0.364-0.062-0.364-0.062l0.026-5.248
		c0,0,0.216-0.054,0.338-0.053c0.414,0,0.75,0.224,0.75,0.5v4.365C18.513,8.191,18.46,8.292,18.371,8.374z"/>
	<path fill="#ABABAB" d="M18.371,8.374c-0.252,0.222-0.608,0.208-0.608,0.208V3.218c0,0,0.75,0.224,0.75,0.5v4.365
		C18.513,8.191,18.46,8.292,18.371,8.374z"/>
	<path fill="#4F4F4F" d="M18.371,8.374c-0.031,0.029-0.174,0.117-0.174,0.117l-0.01-5.076c0,0,0.325,0.165,0.325,0.304v4.365
		C18.513,8.191,18.46,8.292,18.371,8.374z"/>
	<path fill="#0054BF" stroke="#404040" stroke-width="0.5" stroke-miterlimit="10" d="M20.663,0.704
		c0.574,1.554-0.22,3.28-1.774,3.854c-1.554,0.574-3.284-0.221-3.859-1.775c-0.574-1.554,0.221-3.28,1.78-3.854
		C18.364-1.644,20.089-0.85,20.663,0.704z"/>
	<path fill="#002F7F" d="M20.744,1.756c-0.071,1.851-1.576,2.941-3.014,2.885c-0.467-0.018-1.076-0.274-1.076-0.274
		s1.845-0.213,2.847-1.3c1-1.087,1.131-2.042,1.131-2.042S20.752,1.542,20.744,1.756z"/>
	<path fill="none" stroke="#404040" stroke-width="0.5" stroke-miterlimit="10" d="M20.663,0.704c0.574,1.554-0.22,3.28-1.774,3.854
		c-1.554,0.574-3.284-0.221-3.859-1.775c-0.574-1.554,0.221-3.28,1.78-3.854C18.364-1.644,20.089-0.85,20.663,0.704z"/>
	<circle fill="#72B1E6" cx="17.24" cy="0.835" r="1"/>
</g>
<g>
	<g>
		<path fill="#FFFFFF" d="M17.848,20.576c-0.321,0-0.613-0.107-0.801-0.295c-0.13-0.131-0.198-0.287-0.197-0.455l-0.001-4.363
			c0.002-0.421,0.44-0.75,0.999-0.75c0.562,0,1.001,0.33,1.001,0.75v4.365c0,0.174-0.079,0.342-0.222,0.475
			c-0.188,0.174-0.471,0.273-0.776,0.273H17.848z"/>
		<path fill="#434343" d="M17.85,14.963c0.414,0,0.749,0.224,0.749,0.5v4.365c0,0.107-0.053,0.209-0.142,0.291
			c-0.136,0.125-0.356,0.207-0.606,0.207c-0.001,0-0.001,0-0.002,0c-0.415,0-0.75-0.222-0.749-0.498l-0.001-4.365
			c0.001-0.276,0.335-0.5,0.749-0.5H17.85L17.85,14.963 M17.85,14.463L17.85,14.463c-0.7,0-1.249,0.438-1.251,0.998l0.001,4.367
			c-0.001,0.229,0.095,0.453,0.27,0.629c0.234,0.234,0.591,0.369,0.979,0.369c0.37,0,0.715-0.124,0.948-0.341
			c0.194-0.179,0.302-0.413,0.302-0.657v-4.365C19.099,14.902,18.55,14.463,17.85,14.463L17.85,14.463z"/>
	</g>
	<path fill="#D4D4D4" d="M18.457,20.119c-0.136,0.125-0.357,0.208-0.608,0.207c-0.133,0-0.364-0.062-0.364-0.062l0.026-5.248
		c0,0,0.216-0.054,0.338-0.053c0.414,0,0.75,0.224,0.75,0.5v4.365C18.599,19.936,18.546,20.037,18.457,20.119z"/>
	<path fill="#ABABAB" d="M18.457,20.119c-0.252,0.221-0.608,0.207-0.608,0.207v-5.363c0,0,0.75,0.224,0.75,0.5v4.365
		C18.599,19.936,18.546,20.037,18.457,20.119z"/>
	<path fill="#4F4F4F" d="M18.457,20.119c-0.031,0.028-0.174,0.116-0.174,0.116l-0.01-5.076c0,0,0.325,0.165,0.325,0.304v4.365
		C18.599,19.936,18.546,20.037,18.457,20.119z"/>
	<path fill="#DF3800" stroke="#404040" stroke-width="0.5" stroke-miterlimit="10" d="M20.749,12.449
		c0.574,1.554-0.22,3.28-1.774,3.854c-1.554,0.574-3.284-0.221-3.859-1.775c-0.574-1.554,0.221-3.28,1.78-3.854
		C18.45,10.101,20.175,10.895,20.749,12.449z"/>
	<path fill="#BB3800" d="M20.83,13.5c-0.071,1.851-1.576,2.941-3.014,2.885c-0.467-0.018-1.076-0.274-1.076-0.274
		s1.845-0.213,2.847-1.3c1-1.087,1.131-2.042,1.131-2.042S20.838,13.287,20.83,13.5z"/>
	<path fill="none" stroke="#404040" stroke-width="0.5" stroke-miterlimit="10" d="M20.749,12.449
		c0.574,1.554-0.22,3.28-1.774,3.854c-1.554,0.574-3.284-0.221-3.859-1.775c-0.574-1.554,0.221-3.28,1.78-3.854
		C18.45,10.101,20.175,10.895,20.749,12.449z"/>
	<circle fill="#FF7C72" cx="17.326" cy="12.58" r="1"/>
</g>
<g display="none">
	
		<line display="inline" fill="none" stroke="#000000" stroke-width="2" stroke-linecap="round" stroke-linejoin="round" stroke-miterlimit="10" x1="32.593" y1="13.679" x2="32.593" y2="3.157"/>
	
		<line display="inline" fill="none" stroke="#000000" stroke-width="2" stroke-linecap="round" stroke-linejoin="round" stroke-miterlimit="10" x1="31.011" y1="6.063" x2="34.175" y2="6.063"/>
</g>
<g>
	
		<line fill="none" stroke="#404040" stroke-width="2" stroke-linecap="round" stroke-linejoin="round" stroke-miterlimit="10" x1="35.382" y1="13.226" x2="29.521" y2="6.534"/>
	
		<line fill="none" stroke="#404040" stroke-width="2" stroke-linecap="round" stroke-linejoin="round" stroke-miterlimit="10" x1="29.521" y1="13.225" x2="35.382" y2="6.534"/>
</g>
<polygon display="none" fill="#828282" stroke="#828282" stroke-width="0.9114" stroke-linecap="round" stroke-linejoin="round" stroke-miterlimit="10" points="
	22.494,3.816 28.138,9.785 22.494,15.754 "/>
</svg>
