<?xml version="1.0" encoding="utf-8"?>
<!-- Generator: Adobe Illustrator 15.0.2, SVG Export Plug-In . SVG Version: 6.00 Build 0)  -->
<!DOCTYPE svg PUBLIC "-//W3C//DTD SVG 1.0//EN" "http://www.w3.org/TR/2001/REC-SVG-20010904/DTD/svg10.dtd">
<svg version="1.0" id="Layer_1" xmlns="http://www.w3.org/2000/svg" xmlns:xlink="http://www.w3.org/1999/xlink" x="0px" y="0px"
	 width="24px" height="24px" viewBox="0 0 24 24" enable-background="new 0 0 24 24" xml:space="preserve">
<g display="none">
	<g display="inline">
		<path fill="#FFFFFF" d="M3.62,10.79c-0.322,0-0.614-0.108-0.802-0.296c-0.129-0.13-0.197-0.287-0.197-0.454L2.621,5.676
			c0.001-0.421,0.44-0.75,0.999-0.75c0.563,0,1.001,0.33,1.001,0.75v4.365c0,0.174-0.079,0.343-0.222,0.475
			c-0.188,0.174-0.47,0.274-0.775,0.274H3.62z"/>
		<path fill="#434343" d="M3.622,5.176c0.414,0,0.749,0.224,0.749,0.5v4.365c0,0.108-0.053,0.209-0.142,0.291
			c-0.135,0.125-0.356,0.208-0.606,0.208c-0.001,0-0.001,0-0.002,0c-0.415,0-0.75-0.222-0.749-0.499L2.871,5.676
			c0.001-0.276,0.335-0.5,0.749-0.5c0,0,0.001,0,0.001,0S3.622,5.176,3.622,5.176 M3.622,4.676H3.621c-0.7,0-1.248,0.438-1.25,0.998
			l0.001,4.367c-0.001,0.23,0.095,0.454,0.27,0.629c0.234,0.235,0.591,0.37,0.979,0.37c0.37,0,0.715-0.125,0.949-0.341
			c0.194-0.179,0.301-0.413,0.301-0.658V5.676C4.87,5.115,4.322,4.676,3.622,4.676L3.622,4.676z"/>
	</g>
	<path display="inline" fill="#D4D4D4" d="M4.229,10.332c-0.136,0.126-0.357,0.208-0.608,0.208c-0.133,0-0.364-0.062-0.364-0.062
		l0.026-5.248c0,0,0.216-0.054,0.338-0.053c0.414,0,0.75,0.224,0.75,0.5v4.365C4.371,10.149,4.318,10.25,4.229,10.332z"/>
	<path display="inline" fill="#ABABAB" d="M4.229,10.332c-0.252,0.222-0.608,0.208-0.608,0.208V5.176c0,0,0.75,0.224,0.75,0.5v4.365
		C4.371,10.149,4.318,10.25,4.229,10.332z"/>
	<path display="inline" fill="#4F4F4F" d="M4.229,10.332c-0.031,0.029-0.174,0.117-0.174,0.117l-0.01-5.076
		c0,0,0.325,0.165,0.325,0.304v4.365C4.371,10.149,4.318,10.25,4.229,10.332z"/>
	
		<circle display="inline" fill="#0054BF" stroke="#404040" stroke-width="0.5" stroke-miterlimit="10" cx="3.704" cy="3.701" r="3.002"/>
	<path display="inline" fill="#002F7F" d="M6.602,3.713C6.53,5.564,5.025,6.654,3.588,6.599C3.122,6.581,2.512,6.324,2.512,6.324
		s1.845-0.213,2.846-1.3c1-1.087,1.131-2.042,1.131-2.042S6.609,3.5,6.602,3.713z"/>
	
		<circle display="inline" fill="none" stroke="#404040" stroke-width="0.5" stroke-miterlimit="10" cx="3.704" cy="3.701" r="3.002"/>
	<circle display="inline" fill="#72B1E6" cx="3.098" cy="2.793" r="1"/>
</g>
<g id="layer4" transform="translate(0,-8)" inkscape:label="1" inkscape:groupmode="layer">
	
		<line display="none" fill="none" stroke="#000000" stroke-width="0.9026" stroke-linecap="round" stroke-linejoin="round" x1="13.399" y1="11.601" x2="13.399" y2="13.911"/>
	
		<line display="none" fill="none" stroke="#000000" stroke-width="0.9026" stroke-linecap="round" stroke-linejoin="round" x1="23" y1="21.204" x2="20.69" y2="21.204"/>
	
		<line display="none" fill="none" stroke="#000000" stroke-width="0.9026" stroke-linecap="round" stroke-linejoin="round" x1="13.399" y1="30.801" x2="13.399" y2="28.491"/>
	
		<line display="none" fill="none" stroke="#000000" stroke-width="0.9026" stroke-linecap="round" stroke-linejoin="round" x1="3.79" y1="21.204" x2="6.1" y2="21.204"/>
	
		<path id="path3834" sodipodi:rx="5.9612203" sodipodi:cy="7" sodipodi:cx="12" sodipodi:ry="6.0742435" sodipodi:type="arc" fill="#E6E6E6" fill-opacity="0.7" stroke="#1A1A1A" stroke-width="0.9026" stroke-linecap="round" stroke-linejoin="round" enable-background="new    " d="
		M22.999,21.204c0,5.297-4.299,9.596-9.6,9.596c-5.312,0-9.609-4.299-9.609-9.596c0-5.305,4.298-9.604,9.609-9.604
		C18.7,11.601,22.999,15.899,22.999,21.204z"/>
	
		<path id="path3838" sodipodi:nodetypes="czzzz" inkscape:connector-curvature="0" opacity="0.7" fill="#FCFFFF" enable-background="new    " d="
		M7.99,15.803c2.4-3.6,5.34-4.078,7.209-2.399c1.869,1.677-2.4,1.2-4.809,3.6c-2.4,2.4,0,7.199-2.4,7.199S5.59,19.403,7.99,15.803z"
		/>
	<g>
		<polygon fill="#FFFFFF" points="9.878,28.638 11.114,20.13 15.675,22.274 		"/>
		<polygon fill="#BE1E2D" points="11.114,20.13 16.911,13.764 15.675,22.274 		"/>
		
			<polygon fill="none" stroke="#000000" stroke-width="0.5362" stroke-linecap="round" stroke-linejoin="round" stroke-miterlimit="10" points="
			9.878,28.638 11.114,20.13 16.911,13.764 15.675,22.274 		"/>
	</g>
</g>
<g display="none">
	<g display="inline">
		<path fill="#FFFFFF" d="M4.886,22.288c-0.379,0-0.735-0.13-0.951-0.347c-0.141-0.142-0.215-0.31-0.214-0.487L3.72,15.635
			c0.001-0.468,0.513-0.834,1.165-0.834c0.658,0,1.169,0.366,1.169,0.834v5.82c0,0.186-0.086,0.367-0.243,0.512
			c-0.22,0.204-0.555,0.321-0.919,0.321H4.886z"/>
		<path fill="#434343" d="M4.89,14.968c0.55,0,0.997,0.299,0.997,0.667v5.82c0,0.145-0.07,0.279-0.189,0.389
			c-0.18,0.167-0.474,0.277-0.807,0.277c-0.001,0-0.003,0-0.004,0c-0.553,0-1-0.297-0.999-0.666l-0.001-5.82
			c0.001-0.368,0.447-0.667,0.998-0.667c0.001,0,0.002,0,0.003,0S4.889,14.968,4.89,14.968 M4.89,14.635H4.887
			c-0.747,0-1.332,0.438-1.334,0.999l0.001,5.821c-0.001,0.222,0.09,0.431,0.263,0.604c0.25,0.251,0.64,0.395,1.07,0.395
			c0.41,0,0.787-0.133,1.038-0.366c0.19-0.175,0.296-0.4,0.296-0.633v-5.82C6.22,15.074,5.636,14.635,4.89,14.635L4.89,14.635z"/>
	</g>
	<path display="inline" fill="#D4D4D4" d="M5.698,21.844c-0.181,0.168-0.477,0.278-0.811,0.277c-0.177,0-0.486-0.083-0.486-0.083
		l0.035-6.999c0,0,0.288-0.072,0.451-0.071c0.552-0.001,1,0.298,1,0.667v5.82C5.887,21.6,5.816,21.734,5.698,21.844z"/>
	<path display="inline" fill="#ABABAB" d="M5.698,21.844c-0.336,0.296-0.811,0.277-0.811,0.277v-7.153c0,0,1,0.298,1,0.667v5.82
		C5.887,21.6,5.816,21.734,5.698,21.844z"/>
	<path display="inline" fill="#4F4F4F" d="M5.698,21.844c-0.042,0.038-0.232,0.155-0.232,0.155l-0.013-6.77
		c0,0,0.434,0.221,0.434,0.405v5.82C5.887,21.6,5.816,21.734,5.698,21.844z"/>
	
		<circle display="inline" fill="#DF3800" stroke="#404040" stroke-width="0.3334" stroke-miterlimit="10" cx="5.002" cy="13.001" r="4.001"/>
	<path display="inline" fill="#BB3800" d="M8.862,13.018c-0.095,2.469-2.101,3.922-4.019,3.848C4.221,16.842,3.409,16.5,3.409,16.5
		s2.46-0.285,3.795-1.734s1.51-2.723,1.51-2.723S8.873,12.733,8.862,13.018z"/>
	<circle display="inline" fill="#FF7C72" cx="4.19" cy="11.79" r="1.334"/>
</g>
<g display="none">
	<polygon display="inline" fill="#FFFFFF" points="12,20.225 9.482,12 14.517,12 	"/>
	<polygon display="inline" fill="#BE1E2D" points="9.482,12 12,3.774 14.517,12 	"/>
	
		<polygon display="inline" fill="none" stroke="#000000" stroke-width="0.5362" stroke-linecap="round" stroke-linejoin="round" stroke-miterlimit="10" points="
		12,20.225 9.482,12 12,3.774 14.517,12 	"/>
</g>
<g>
	<path fill="#035DC5" stroke="#035DC5" stroke-miterlimit="10" d="M1.612,9.6V1.517h1.139l2.591,4.09
		c0.6,0.947,1.067,1.799,1.451,2.626l0.024-0.012c-0.096-1.079-0.12-2.062-0.12-3.322V1.517H7.68V9.6H6.625L4.059,5.499
		C3.495,4.599,2.955,3.675,2.547,2.8L2.511,2.812c0.06,1.019,0.084,1.991,0.084,3.334V9.6H1.612z"/>
</g>
</svg>
