<?xml version="1.0" encoding="utf-8"?>
<!-- Generator: Adobe Illustrator 15.0.2, SVG Export Plug-In . SVG Version: 6.00 Build 0)  -->
<!DOCTYPE svg PUBLIC "-//W3C//DTD SVG 1.0//EN" "http://www.w3.org/TR/2001/REC-SVG-20010904/DTD/svg10.dtd">
<svg version="1.0"
	 id="svg5692" xmlns:inkscape="http://www.inkscape.org/namespaces/inkscape" xmlns:sodipodi="http://sodipodi.sourceforge.net/DTD/sodipodi-0.dtd" inkscape:export-filename="/mnt/home1/robert/svn/graphics/trunk/toolbar-icons/24x24/label-rotate.png" inkscape:export-xdpi="90" inkscape:export-ydpi="90" xmlns:svg="http://www.w3.org/2000/svg" sodipodi:docname="mActionRotateLabel.svg" inkscape:version="0.48.2 r9819" xmlns:rdf="http://www.w3.org/1999/02/22-rdf-syntax-ns#" xmlns:cc="http://creativecommons.org/ns#" xmlns:dc="http://purl.org/dc/elements/1.1/"
	 xmlns="http://www.w3.org/2000/svg" xmlns:xlink="http://www.w3.org/1999/xlink" x="0px" y="0px" width="24px" height="24px"
	 viewBox="13.258 -2.144 24 24" enable-background="new 13.258 -2.144 24 24" xml:space="preserve">
<path display="none" fill="none" stroke="#434343" stroke-width="0.75" stroke-linecap="round" stroke-linejoin="round" stroke-miterlimit="10" d="
	M25.813,17.577c-0.483,1.781-2.319,2.836-4.103,2.354s-2.838-2.317-2.355-4.1"/>
<path display="none" fill="#FFFFFF" stroke="#434343" stroke-width="0.75" stroke-linecap="round" stroke-linejoin="round" stroke-miterlimit="10" d="
	M35.043,18.229c0,1.444-4.447,2.614-9.934,2.614c-5.487,0-9.93-1.17-9.93-2.614c0-1.439,4.442-2.613,9.93-2.613
	C30.596,15.617,35.043,16.79,35.043,18.229z"/>
<path display="none" fill="none" stroke="#434343" stroke-width="0.75" stroke-linecap="round" stroke-linejoin="round" stroke-miterlimit="10" d="
	M31.135,18.024c0,1.464-2.697,2.648-6.024,2.648c-3.329,0-6.022-1.185-6.022-2.648c0-1.457,2.693-2.644,6.022-2.644
	C28.438,15.38,31.135,16.567,31.135,18.024z"/>
<g>
	<path fill="#FFFFFF" d="M25.106,19.605c-0.568,0-1.103-0.194-1.426-0.519c-0.211-0.212-0.322-0.465-0.321-0.73l-0.002-8.729
		c0.003-0.701,0.771-1.25,1.749-1.25c0.982,0,1.751,0.549,1.751,1.25v8.73c0,0.281-0.126,0.546-0.363,0.766
		c-0.33,0.307-0.834,0.482-1.382,0.482H25.106z"/>
	<path fill="#434343" d="M25.108,8.627c0.828,0,1.499,0.448,1.499,1v8.73c0,0.217-0.105,0.418-0.283,0.582
		c-0.271,0.251-0.712,0.416-1.212,0.416c-0.002,0-0.003,0-0.005,0c-0.829,0-1.5-0.444-1.498-0.998l-0.002-8.73
		c0.002-0.552,0.671-1,1.499-1H25.108L25.108,8.627 M25.109,8.127h-0.002c-1.119,0-1.997,0.658-2,1.498l0.002,8.732
		c-0.001,0.332,0.135,0.646,0.394,0.905c0.376,0.377,0.96,0.593,1.604,0.593c0.615,0,1.181-0.2,1.557-0.55
		c0.285-0.263,0.443-0.601,0.443-0.948v-8.73C27.107,8.786,26.229,8.127,25.109,8.127L25.109,8.127z"/>
</g>
<path fill="#D4D4D4" d="M26.324,18.939c-0.271,0.252-0.715,0.417-1.217,0.416c-0.266,0-0.729-0.125-0.729-0.125l0.053-10.496
	c0,0,0.433-0.107,0.676-0.107c0.828,0,1.5,0.447,1.5,1v8.73C26.607,18.574,26.502,18.775,26.324,18.939z"/>
<path fill="#ABABAB" d="M26.324,18.939c-0.504,0.443-1.217,0.416-1.217,0.416V8.627c0,0,1.5,0.447,1.5,1v8.73
	C26.607,18.574,26.502,18.775,26.324,18.939z"/>
<path fill="#4F4F4F" d="M26.324,18.939c-0.062,0.058-0.348,0.233-0.348,0.233L25.957,9.02c0,0,0.65,0.331,0.65,0.607v8.73
	C26.607,18.574,26.502,18.775,26.324,18.939z"/>
<circle fill="#B59951" stroke="#404040" stroke-width="0.5" stroke-miterlimit="10" cx="25.281" cy="5.679" r="6"/>
<path fill="#A18745" d="M31.07,5.703c-0.143,3.703-3.151,5.882-6.027,5.771c-0.934-0.036-2.151-0.55-2.151-0.55
	s3.689-0.426,5.692-2.599c2.001-2.174,2.263-4.084,2.263-4.084S31.086,5.277,31.07,5.703z"/>
<circle fill="#D7C599" cx="24.063" cy="3.862" r="2"/>
<path display="none" fill="none" stroke="#434343" stroke-width="0.75" stroke-linecap="round" stroke-linejoin="round" stroke-miterlimit="10" d="
	M29.975,17.479c-0.001,1.846-2.18,3.346-4.866,3.347c-2.689,0.002-4.868-1.493-4.868-3.34"/>
</svg>
