<?xml version="1.0" encoding="utf-8"?>
<!-- Generator: Adobe Illustrator 15.0.2, SVG Export Plug-In . SVG Version: 6.00 Build 0)  -->
<!DOCTYPE svg PUBLIC "-//W3C//DTD SVG 1.0//EN" "http://www.w3.org/TR/2001/REC-SVG-20010904/DTD/svg10.dtd">
<svg version="1.0" id="Layer_1" xmlns="http://www.w3.org/2000/svg" xmlns:xlink="http://www.w3.org/1999/xlink" x="0px" y="0px"
	 width="24px" height="24px" viewBox="0 0 24 24" enable-background="new 0 0 24 24" xml:space="preserve">
<g>
	<g>
		<rect x="14" y="3" fill="none" stroke="#231F20" stroke-width="0.6" stroke-miterlimit="10" width="8" height="8"/>
		<rect x="6" y="11" fill="none" stroke="#231F20" stroke-width="0.6" stroke-miterlimit="10" width="8" height="8"/>
		<rect x="14" y="11" fill="none" stroke="#231F20" stroke-width="0.6" stroke-miterlimit="10" width="8" height="8"/>
		<rect x="6" y="3" fill="none" stroke="#231F20" stroke-width="0.6" stroke-miterlimit="10" width="8" height="8"/>
	</g>
	<rect x="6" y="3" fill="none" stroke="#231F20" stroke-width="1.2" stroke-miterlimit="10" width="16" height="16"/>
</g>
<g>
	<g>
		<path fill="#FFFFFF" d="M4.886,22.288c-0.379,0-0.735-0.13-0.951-0.347c-0.141-0.142-0.215-0.31-0.214-0.487L3.72,15.635
			c0.001-0.468,0.513-0.834,1.165-0.834c0.658,0,1.169,0.366,1.169,0.834v5.82c0,0.186-0.086,0.367-0.243,0.512
			c-0.22,0.204-0.555,0.321-0.919,0.321H4.886z"/>
		<path fill="#434343" d="M4.89,14.968c0.55,0,0.997,0.299,0.997,0.667v5.82c0,0.145-0.07,0.279-0.189,0.389
			c-0.18,0.167-0.474,0.277-0.807,0.277c-0.001,0-0.003,0-0.004,0c-0.553,0-1-0.297-0.999-0.666l-0.001-5.82
			c0.001-0.368,0.447-0.667,0.998-0.667c0.001,0,0.002,0,0.003,0S4.889,14.968,4.89,14.968 M4.89,14.635H4.887
			c-0.747,0-1.332,0.438-1.334,0.999l0.001,5.821c-0.001,0.222,0.09,0.431,0.263,0.604c0.25,0.251,0.64,0.395,1.07,0.395
			c0.41,0,0.787-0.133,1.038-0.366c0.19-0.175,0.296-0.4,0.296-0.633v-5.82C6.22,15.074,5.636,14.635,4.89,14.635L4.89,14.635z"/>
	</g>
	<path fill="#D4D4D4" d="M5.698,21.844c-0.181,0.168-0.477,0.278-0.811,0.277c-0.177,0-0.486-0.083-0.486-0.083l0.035-6.999
		c0,0,0.288-0.072,0.451-0.071c0.552-0.001,1,0.298,1,0.667v5.82C5.887,21.6,5.816,21.734,5.698,21.844z"/>
	<path fill="#ABABAB" d="M5.698,21.844c-0.336,0.296-0.811,0.277-0.811,0.277v-7.153c0,0,1,0.298,1,0.667v5.82
		C5.887,21.6,5.816,21.734,5.698,21.844z"/>
	<path fill="#4F4F4F" d="M5.698,21.844c-0.042,0.038-0.232,0.155-0.232,0.155l-0.013-6.77c0,0,0.434,0.221,0.434,0.405v5.82
		C5.887,21.6,5.816,21.734,5.698,21.844z"/>
	<circle fill="#DF3800" stroke="#404040" stroke-width="0.3334" stroke-miterlimit="10" cx="5.002" cy="13.001" r="4.001"/>
	<path fill="#BB3800" d="M8.862,13.018c-0.095,2.469-2.101,3.922-4.019,3.848C4.221,16.842,3.409,16.5,3.409,16.5
		s2.46-0.285,3.795-1.734s1.51-2.723,1.51-2.723S8.873,12.733,8.862,13.018z"/>
	<circle fill="#FF7C72" cx="4.19" cy="11.79" r="1.334"/>
</g>
</svg>
