<?xml version="1.0" encoding="utf-8"?>
<!-- Generator: Adobe Illustrator 15.0.2, SVG Export Plug-In . SVG Version: 6.00 Build 0)  -->
<!DOCTYPE svg PUBLIC "-//W3C//DTD SVG 1.0//EN" "http://www.w3.org/TR/2001/REC-SVG-20010904/DTD/svg10.dtd">
<svg version="1.0" id="Layer_1" xmlns="http://www.w3.org/2000/svg" xmlns:xlink="http://www.w3.org/1999/xlink" x="0px" y="0px"
	 width="24px" height="24px" viewBox="0 0 24 24" enable-background="new 0 0 24 24" xml:space="preserve">
<rect x="5" y="9" fill="#B01722" width="14" height="6"/>
<g>
	<path fill="#B01722" d="M19,7c1.104,0,2,0.896,2,2v6c0,1.104-0.896,2-2,2H5c-1.104,0-2-0.896-2-2V9c0-1.104,0.896-2,2-2H19 M19,5.5
		H5C3.07,5.5,1.5,7.07,1.5,9v6c0,1.93,1.57,3.5,3.5,3.5h14c1.93,0,3.5-1.57,3.5-3.5V9C22.5,7.07,20.93,5.5,19,5.5L19,5.5z"/>
</g>
</svg>
