<?xml version="1.0" encoding="utf-8"?>
<!-- Generator: Adobe Illustrator 15.0.2, SVG Export Plug-In . SVG Version: 6.00 Build 0)  -->
<!DOCTYPE svg PUBLIC "-//W3C//DTD SVG 1.0//EN" "http://www.w3.org/TR/2001/REC-SVG-20010904/DTD/svg10.dtd">
<svg version="1.0" id="Layer_1" xmlns="http://www.w3.org/2000/svg" xmlns:xlink="http://www.w3.org/1999/xlink" x="0px" y="0px"
	 width="24px" height="24px" viewBox="0 0 24 24" enable-background="new 0 0 24 24" xml:space="preserve">
<line fill="none" stroke="#00801F" stroke-width="4" stroke-miterlimit="10" x1="5" y1="12" x2="19" y2="12"/>
<line fill="none" stroke="#00801F" stroke-width="4" stroke-miterlimit="10" x1="12" y1="5" x2="12" y2="19"/>
<g>
	<path fill="#00801F" d="M14,3c1.104,0,2,0.896,2,2v3h3c1.104,0,2,0.896,2,2v4c0,1.104-0.896,2-2,2h-3v3c0,1.104-0.896,2-2,2h-4
		c-1.104,0-2-0.896-2-2v-3H5c-1.104,0-2-0.896-2-2v-4c0-1.104,0.896-2,2-2h3V5c0-1.104,0.896-2,2-2H14 M14,1.5h-4
		C8.07,1.5,6.5,3.07,6.5,5v1.5H5c-1.93,0-3.5,1.57-3.5,3.5v4c0,1.93,1.57,3.5,3.5,3.5h1.5V19c0,1.93,1.57,3.5,3.5,3.5h4
		c1.93,0,3.5-1.57,3.5-3.5v-1.5H19c1.93,0,3.5-1.57,3.5-3.5v-4c0-1.93-1.57-3.5-3.5-3.5h-1.5V5C17.5,3.07,15.93,1.5,14,1.5L14,1.5z"
		/>
</g>
</svg>
