<?xml version="1.0" encoding="utf-8"?>
<!-- Generator: Adobe Illustrator 15.0.2, SVG Export Plug-In . SVG Version: 6.00 Build 0)  -->
<!DOCTYPE svg PUBLIC "-//W3C//DTD SVG 1.0//EN" "http://www.w3.org/TR/2001/REC-SVG-20010904/DTD/svg10.dtd">
<svg version="1.0" xmlns="http://www.w3.org/2000/svg" xmlns:xlink="http://www.w3.org/1999/xlink" x="0px" y="0px" width="24px"
	 height="24px" viewBox="0 0 24 24" enable-background="new 0 0 24 24" xml:space="preserve">
<g id="bottom">
	<polygon fill="#C0D8E6" stroke="#89A3B3" stroke-miterlimit="10" points="17,19.234 1,19.234 4,11 20,11 	"/>
	<polygon fill="#C0D8E6" stroke="#89A3B3" stroke-miterlimit="10" points="17,15.234 1,15.234 4,7 20,7 	"/>
	<polygon fill="#F9F8A4" stroke="#AFB360" stroke-miterlimit="10" points="17,11.234 1,11.234 4,3 20,3 	"/>
	<polygon fill="#333333" points="8,2 15.979,15 24,2 	"/>
	<line fill="none" stroke="#000000" stroke-width="3" stroke-miterlimit="10" x1="8" y1="21.001" x2="24" y2="21"/>
</g>
<g id="lower" display="none">
	<polygon display="inline" fill="#C0D8E6" stroke="#89A3B3" stroke-miterlimit="10" points="17,20.234 1,20.234 4,12 20,12 	"/>
	<polygon display="inline" fill="#F9F8A4" stroke="#AFB360" stroke-miterlimit="10" points="17,12 1,12 4,3.766 20,3.766 	"/>
	<polygon display="inline" fill="#333333" points="8,6 15.979,19 24,6 	"/>
</g>
<g id="raise_1_" display="none">
	<polygon display="inline" fill="#F9F8A4" stroke="#AFB360" stroke-miterlimit="10" points="17,20.234 1,20.234 4,12 20,12 	"/>
	<polygon display="inline" fill="#C0D8E6" stroke="#89A3B3" stroke-miterlimit="10" points="17,12 1,12 4,3.766 20,3.766 	"/>
	<polygon display="inline" fill="#333333" points="24,18 16.021,5 8,18 	"/>
</g>
<g id="top" display="none">
	<polygon display="inline" fill="#F9F8A4" stroke="#AFB360" stroke-miterlimit="10" points="17,21.234 1,21.234 4,13 20,13 	"/>
	<polygon display="inline" fill="#C0D8E6" stroke="#89A3B3" stroke-miterlimit="10" points="17,17 1,17 4,8.766 20,8.766 	"/>
	<polygon display="inline" fill="#C0D8E6" stroke="#89A3B3" stroke-miterlimit="10" points="17,13 1,13 4,4.766 20,4.766 	"/>
	<polygon display="inline" fill="#333333" points="24,22 16.021,9 8,22 	"/>
	<line display="inline" fill="none" stroke="#000000" stroke-width="2" stroke-miterlimit="10" x1="8" y1="3" x2="24" y2="2.999"/>
</g>
</svg>
