<?xml version="1.0" encoding="utf-8"?>
<!-- Generator: Adobe Illustrator 15.0.2, SVG Export Plug-In . SVG Version: 6.00 Build 0)  -->
<!DOCTYPE svg PUBLIC "-//W3C//DTD SVG 1.0//EN" "http://www.w3.org/TR/2001/REC-SVG-20010904/DTD/svg10.dtd">
<svg version="1.0"
	 id="bone" xmlns:dc="http://purl.org/dc/elements/1.1/" xmlns:cc="http://creativecommons.org/ns#" xmlns:rdf="http://www.w3.org/1999/02/22-rdf-syntax-ns#" xmlns:svg="http://www.w3.org/2000/svg" xmlns:sodipodi="http://sodipodi.sourceforge.net/DTD/sodipodi-0.dtd" inkscape:export-ydpi="90" xmlns:inkscape="http://www.inkscape.org/namespaces/inkscape" inkscape:export-xdpi="90" inkscape:export-filename="/mnt/home1/robert/svn/graphics/trunk/toolbar-icons/24x24/label-rotate.png" sodipodi:docname="mActionRotateLabel.svg" inkscape:version="0.48.2 r9819"
	 xmlns="http://www.w3.org/2000/svg" xmlns:xlink="http://www.w3.org/1999/xlink" x="0px" y="0px" width="24px" height="24px"
	 viewBox="13.258 -2.144 24 24" enable-background="new 13.258 -2.144 24 24" xml:space="preserve">
<g display="none">
	<circle display="inline" fill="#72B1E6" cx="28.125" cy="1.667" r="3.083"/>
	<circle display="inline" fill="#72B1E6" cx="32.292" cy="6" r="2.791"/>
	<circle display="inline" fill="#72B1E6" cx="16.208" cy="13.667" r="2.292"/>
	<circle display="inline" fill="#72B1E6" cx="19.417" cy="17.292" r="3.333"/>
	
		<rect x="16.315" y="6.626" transform="matrix(0.7243 -0.6895 0.6895 0.7243 0.3163 19.5039)" display="inline" fill="#72B1E6" width="16.459" height="5.46"/>
</g>
<linearGradient id="SVGID_1_" gradientUnits="userSpaceOnUse" x1="18.5166" y1="6.6401" x2="31.7785" y2="14.2969">
	<stop  offset="0" style="stop-color:#E0C796"/>
	<stop  offset="0.3956" style="stop-color:#AE9871"/>
	<stop  offset="0.797" style="stop-color:#816E50"/>
	<stop  offset="1" style="stop-color:#705E43"/>
</linearGradient>
<path fill="url(#SVGID_1_)" stroke="#594A2D" stroke-width="0.75" stroke-miterlimit="10" d="M33.028,3.428
	c-0.308-0.185-0.593-0.398-0.812-0.694c-0.413-0.554-0.62-1.243-0.932-1.854c-0.38-0.745-0.896-1.473-1.66-1.861
	c-0.758-0.385-1.641-0.325-2.367,0.104c-1.218,0.72-1.9,2.384-1.342,3.719c0.129,0.309,0.312,0.595,0.511,0.863
	c0.178,0.24,0.414,0.505,0.309,0.827C26.637,4.831,26.301,5,26.065,5.176c-0.88,0.654-1.627,1.508-2.42,2.263
	c-0.762,0.725-1.523,1.45-2.284,2.175c-0.647,0.616-1.295,1.232-1.942,1.848c-0.205,0.195-0.41,0.39-0.615,0.586
	c-0.088,0.084-0.16,0.24-0.284,0.274c-0.127,0.035-0.525-0.199-0.655-0.247c-0.222-0.081-0.445-0.159-0.675-0.216
	c-0.438-0.108-0.917-0.15-1.333,0.054c-0.229,0.112-0.473,0.3-0.635,0.498c-0.71,0.865-0.886,2.402,0.029,3.193
	c0.434,0.375,1.114,0.3,1.52,0.715c0.444,0.455,0.191,1.073,0.216,1.622c0.045,0.994,0.36,1.952,1.212,2.542
	c1.263,0.874,3.267,0.758,4.275-0.462c0.261-0.315,0.54-0.612,0.558-1.044c0.039-0.965,0.074-1.952,0.367-2.88
	c0.302-0.955,0.948-1.793,1.61-2.53c0.805-0.895,1.677-1.733,2.558-2.552c0.711-0.663,1.446-1.372,2.31-1.834
	c0.635-0.34,1.298-0.416,2.008-0.387c1.405,0.058,3.314,0.116,3.897-1.502c0.581-1.612-0.896-2.859-2.151-3.532
	C33.428,3.651,33.224,3.545,33.028,3.428z"/>
</svg>
