<?xml version="1.0" encoding="utf-8"?>
<!-- Generator: Adobe Illustrator 15.0.2, SVG Export Plug-In . SVG Version: 6.00 Build 0)  -->
<!DOCTYPE svg PUBLIC "-//W3C//DTD SVG 1.0//EN" "http://www.w3.org/TR/2001/REC-SVG-20010904/DTD/svg10.dtd">
<svg version="1.0"
	 id="svg5692" inkscape:version="0.48.2 r9819" sodipodi:docname="mActionRotateLabel.svg" inkscape:export-filename="/mnt/home1/robert/svn/graphics/trunk/toolbar-icons/24x24/label-rotate.png" inkscape:export-xdpi="90" inkscape:export-ydpi="90" xmlns:inkscape="http://www.inkscape.org/namespaces/inkscape" xmlns:sodipodi="http://sodipodi.sourceforge.net/DTD/sodipodi-0.dtd" xmlns:svg="http://www.w3.org/2000/svg" xmlns:rdf="http://www.w3.org/1999/02/22-rdf-syntax-ns#" xmlns:cc="http://creativecommons.org/ns#" xmlns:dc="http://purl.org/dc/elements/1.1/"
	 xmlns="http://www.w3.org/2000/svg" xmlns:xlink="http://www.w3.org/1999/xlink" x="0px" y="0px" width="24px" height="24px"
	 viewBox="13.258 -2.144 24 24" enable-background="new 13.258 -2.144 24 24" xml:space="preserve">
<g display="none">
	
		<line display="inline" fill="none" stroke="#808080" stroke-width="2" stroke-linecap="round" stroke-linejoin="round" stroke-miterlimit="10" x1="30.06" y1="17.878" x2="21.489" y2="13.258"/>
	
		<line display="inline" fill="none" stroke="#808080" stroke-width="2" stroke-linecap="round" stroke-linejoin="round" stroke-miterlimit="10" x1="21.489" y1="17.878" x2="30.06" y2="13.258"/>
</g>
<g>
	<g>
		<path fill="#FFFFFF" d="M25.132,15.111c-0.438,0-0.849-0.15-1.1-0.402c-0.168-0.169-0.257-0.373-0.256-0.587l-0.002-6.454
			c0.003-0.556,0.599-0.99,1.355-0.99c0.767,0,1.363,0.435,1.363,0.99v6.455c0,0.227-0.101,0.439-0.29,0.615
			c-0.258,0.237-0.646,0.373-1.065,0.373H25.132z"/>
		<path fill="#434343" d="M25.136,6.928c0.612,0,1.107,0.332,1.107,0.74v6.455c0,0.162-0.078,0.31-0.21,0.432
			c-0.2,0.185-0.525,0.307-0.896,0.307c-0.002,0-0.003,0-0.005,0c-0.613,0-1.108-0.328-1.106-0.738l-0.002-6.455
			c0.002-0.408,0.495-0.74,1.105-0.74c0.001,0,0.002,0,0.003,0S25.135,6.928,25.136,6.928 M25.136,6.428h-0.003
			c-0.899,0-1.605,0.543-1.608,1.237l0.002,6.458c-0.001,0.276,0.115,0.548,0.329,0.762c0.301,0.303,0.767,0.476,1.277,0.476
			c0.486,0,0.937-0.16,1.239-0.439c0.239-0.222,0.371-0.505,0.371-0.799V7.667C26.743,6.972,26.037,6.428,25.136,6.428L25.136,6.428
			z"/>
	</g>
	<path fill="#D4D4D4" d="M26.033,14.554c-0.201,0.186-0.528,0.308-0.9,0.307c-0.196,0-0.538-0.091-0.538-0.091l0.04-7.763
		c0,0,0.317-0.08,0.498-0.079c0.614-0.001,1.11,0.331,1.11,0.74v6.455C26.243,14.284,26.165,14.432,26.033,14.554z"/>
	<path fill="#ABABAB" d="M26.033,14.554c-0.372,0.328-0.9,0.307-0.9,0.307V6.928c0,0,1.11,0.331,1.11,0.74v6.455
		C26.243,14.284,26.165,14.432,26.033,14.554z"/>
	<path fill="#4F4F4F" d="M26.033,14.554c-0.046,0.042-0.258,0.172-0.258,0.172l-0.013-7.508c0,0,0.48,0.244,0.48,0.449v6.455
		C26.243,14.284,26.165,14.432,26.033,14.554z"/>
	<path fill="#0054BF" stroke="#404040" stroke-width="0.5" stroke-miterlimit="10" d="M29.424,3.209
		c0.849,2.299-0.324,4.852-2.625,5.701c-2.297,0.849-4.855-0.327-5.708-2.625c-0.849-2.299,0.325-4.851,2.634-5.7
		C26.022-0.264,28.574,0.911,29.424,3.209z"/>
	<path fill="#002F7F" d="M29.544,4.765c-0.105,2.738-2.332,4.35-4.457,4.268c-0.691-0.026-1.593-0.407-1.593-0.407
		s2.729-0.314,4.211-1.922c1.479-1.607,1.672-3.021,1.672-3.021S29.555,4.449,29.544,4.765z"/>
	<path fill="none" stroke="#404040" stroke-width="0.5" stroke-miterlimit="10" d="M29.424,3.209
		c0.849,2.299-0.324,4.852-2.625,5.701c-2.297,0.849-4.855-0.327-5.708-2.625c-0.849-2.299,0.325-4.851,2.634-5.7
		C26.022-0.264,28.574,0.911,29.424,3.209z"/>
	<circle fill="#72B1E6" cx="24.36" cy="3.403" r="1.48"/>
</g>
<g>
	<g>
		<path fill="#FFFFFF" d="M25.132,15.111c-0.438,0-0.85-0.15-1.101-0.402c-0.168-0.168-0.256-0.371-0.255-0.585l-0.002-6.456
			c0.003-0.555,0.599-0.989,1.355-0.989c0.767,0,1.363,0.435,1.363,0.989v6.457c0,0.224-0.104,0.442-0.291,0.615
			c-0.257,0.236-0.644,0.372-1.061,0.372H25.132z"/>
		<path fill="#434343" d="M25.136,6.929c0.612,0,1.107,0.331,1.107,0.739v6.457c0,0.16-0.078,0.31-0.21,0.431
			c-0.199,0.183-0.523,0.306-0.892,0.306c-0.003,0-0.006,0-0.009,0c-0.613,0-1.108-0.327-1.106-0.736l-0.002-6.457
			c0.002-0.408,0.495-0.739,1.105-0.739c0.001,0,0.002,0,0.003,0S25.135,6.929,25.136,6.929 M25.136,6.429h-0.003
			c-0.899,0-1.605,0.543-1.608,1.237l0.002,6.459c-0.001,0.276,0.115,0.547,0.328,0.76c0.301,0.303,0.767,0.476,1.278,0.476
			c0.487,0,0.936-0.159,1.238-0.437c0.24-0.221,0.372-0.504,0.372-0.799V7.668C26.743,6.973,26.037,6.429,25.136,6.429L25.136,6.429
			z"/>
	</g>
	<path fill="#D4D4D4" d="M26.033,14.555c-0.201,0.185-0.528,0.308-0.9,0.306c-0.196,0-0.538-0.091-0.538-0.091l0.04-7.762
		c0,0,0.317-0.08,0.498-0.079c0.614-0.001,1.11,0.331,1.11,0.739v6.457C26.243,14.284,26.165,14.434,26.033,14.555z"/>
	<path fill="#ABABAB" d="M26.033,14.555c-0.372,0.327-0.9,0.306-0.9,0.306V6.929c0,0,1.11,0.331,1.11,0.739v6.457
		C26.243,14.284,26.165,14.434,26.033,14.555z"/>
	<path fill="#4F4F4F" d="M26.033,14.555c-0.046,0.042-0.258,0.172-0.258,0.172l-0.013-7.509c0,0,0.48,0.245,0.48,0.45v6.457
		C26.243,14.284,26.165,14.434,26.033,14.555z"/>
	<path fill="#DF3800" stroke="#404040" stroke-width="0.5" stroke-miterlimit="10" d="M29.424,3.21
		c0.849,2.298-0.324,4.851-2.625,5.7c-2.297,0.849-4.855-0.327-5.708-2.625c-0.849-2.299,0.325-4.852,2.634-5.7
		C26.022-0.263,28.574,0.911,29.424,3.21z"/>
	<path fill="#BB3800" d="M29.544,4.765c-0.105,2.739-2.332,4.351-4.457,4.268c-0.691-0.026-1.593-0.405-1.593-0.405
		s2.729-0.315,4.211-1.923c1.479-1.607,1.672-3.02,1.672-3.02S29.555,4.45,29.544,4.765z"/>
	<path fill="none" stroke="#404040" stroke-width="0.5" stroke-miterlimit="10" d="M29.424,3.21c0.849,2.298-0.324,4.851-2.625,5.7
		c-2.297,0.849-4.855-0.327-5.708-2.625c-0.849-2.299,0.325-4.852,2.634-5.7C26.022-0.263,28.574,0.911,29.424,3.21z"/>
	<circle fill="#FF7C72" cx="24.36" cy="3.404" r="1.48"/>
</g>
<line fill="none" stroke="#808080" stroke-width="1.5" stroke-linecap="round" stroke-linejoin="round" stroke-miterlimit="10" x1="30.805" y1="14.471" x2="35.805" y2="14.471"/>
<line fill="none" stroke="#808080" stroke-width="1.5" stroke-linecap="round" stroke-linejoin="round" stroke-miterlimit="10" x1="14.67" y1="14.471" x2="19.67" y2="14.471"/>
<linearGradient id="SVGID_1_" gradientUnits="userSpaceOnUse" x1="25.1582" y1="19.0391" x2="25.1582" y2="19.0391">
	<stop  offset="0" style="stop-color:#FFFFFF"/>
	<stop  offset="1" style="stop-color:#000000"/>
</linearGradient>
<line fill="url(#SVGID_1_)" stroke="#808080" stroke-width="1.5" stroke-linecap="round" stroke-linejoin="round" stroke-miterlimit="10" x1="25.158" y1="17.789" x2="25.158" y2="20.289"/>
</svg>
