<?xml version="1.0" encoding="utf-8"?>
<!-- Generator: Adobe Illustrator 15.0.2, SVG Export Plug-In . SVG Version: 6.00 Build 0)  -->
<!DOCTYPE svg PUBLIC "-//W3C//DTD SVG 1.0//EN" "http://www.w3.org/TR/2001/REC-SVG-20010904/DTD/svg10.dtd">
<svg version="1.0" id="Layer_1" xmlns="http://www.w3.org/2000/svg" xmlns:xlink="http://www.w3.org/1999/xlink" x="0px" y="0px"
	 width="24px" height="24px" viewBox="0 0 24 24" enable-background="new 0 0 24 24" xml:space="preserve">
<g display="none">
	<g display="inline">
		<line fill="none" stroke="#1C75BC" stroke-width="4" stroke-miterlimit="10" x1="0" y1="12" x2="16" y2="12"/>
		<g>
			<polygon fill="#1C75BC" points="14.249,17.949 24.611,11.967 14.249,5.983 			"/>
		</g>
	</g>
</g>
<linearGradient id="SVGID_1_" gradientUnits="userSpaceOnUse" x1="1" y1="12" x2="24" y2="12">
	<stop  offset="0" style="stop-color:#3D6478;stop-opacity:0.25"/>
	<stop  offset="0.1413" style="stop-color:#3D6478;stop-opacity:0.356"/>
	<stop  offset="1" style="stop-color:#3D6478"/>
</linearGradient>
<polygon display="none" fill="url(#SVGID_1_)" points="24,11.958 11,2 12,8.047 1,8.047 1,15.952 12,15.952 11,22 "/>
<linearGradient id="SVGID_2_" gradientUnits="userSpaceOnUse" x1="1" y1="12" x2="21" y2="12">
	<stop  offset="0" style="stop-color:#93B2C4;stop-opacity:0.1"/>
	<stop  offset="0.1413" style="stop-color:#93B2C4;stop-opacity:0.2272"/>
	<stop  offset="1" style="stop-color:#93B2C4"/>
</linearGradient>
<polygon display="none" fill="url(#SVGID_2_)" points="21,11.967 13,5 14,10 1,10 1,14 14,14 13,19 "/>
<polygon fill="#3D6478" points="24,11.958 11,1 12,8 1,8 1,16 12,16 11,23 "/>
<polygon fill="#93B2C4" points="21,11.967 13,5 13,10 2,10 2,14 13,14 13,19 "/>
</svg>
