<?xml version="1.0" encoding="utf-8"?>
<!-- Generator: Adobe Illustrator 15.0.2, SVG Export Plug-In . SVG Version: 6.00 Build 0)  -->
<!DOCTYPE svg PUBLIC "-//W3C//DTD SVG 1.0//EN" "http://www.w3.org/TR/2001/REC-SVG-20010904/DTD/svg10.dtd">
<svg version="1.0"
	 id="settings" xmlns:dc="http://purl.org/dc/elements/1.1/" xmlns:cc="http://creativecommons.org/ns#" xmlns:rdf="http://www.w3.org/1999/02/22-rdf-syntax-ns#" xmlns:svg="http://www.w3.org/2000/svg" xmlns:sodipodi="http://sodipodi.sourceforge.net/DTD/sodipodi-0.dtd" inkscape:export-ydpi="90" xmlns:inkscape="http://www.inkscape.org/namespaces/inkscape" inkscape:export-xdpi="90" inkscape:export-filename="/media/home1/robert/svn/graphics/trunk/toolbar-icons/24x24/settings.png" sodipodi:docname="settings.svg" inkscape:version="0.47 r22583"
	 xmlns="http://www.w3.org/2000/svg" xmlns:xlink="http://www.w3.org/1999/xlink" x="0px" y="0px" width="24px" height="24px"
	 viewBox="0 0 24 24" enable-background="new 0 0 24 24" xml:space="preserve">
<linearGradient id="path7183_1_" gradientUnits="userSpaceOnUse" x1="302.9395" y1="-374.9204" x2="308.9392" y2="-382.92" gradientTransform="matrix(1 0 0 -1 -294 -367)">
	<stop  offset="0" style="stop-color:#FEF5AF"/>
	<stop  offset="0.1986" style="stop-color:#FBE741"/>
	<stop  offset="0.7131" style="stop-color:#FBE21E"/>
	<stop  offset="1" style="stop-color:#E3CA04"/>
</linearGradient>
<path id="path7183" fill="url(#path7183_1_)" stroke="#C4A000" stroke-linecap="round" stroke-linejoin="round" d="M9.676,1.542V5.5
	C9.467,5.575,9.258,5.66,9.059,5.754L6.263,2.958L2.958,6.263l2.796,2.796C5.661,9.257,5.575,9.467,5.5,9.676H1.542v4.648H5.5
	c0.074,0.207,0.162,0.419,0.254,0.617l-2.796,2.796l3.305,3.305l2.796-2.796c0.199,0.094,0.409,0.18,0.617,0.254v3.958h4.648V18.5
	c0.209-0.074,0.418-0.16,0.617-0.254l2.796,2.796l3.305-3.305l-2.796-2.796c0.092-0.198,0.18-0.41,0.254-0.617h3.958V9.676H18.5
	c-0.074-0.208-0.16-0.418-0.254-0.617l2.796-2.796l-3.305-3.305l-2.796,2.796c-0.198-0.093-0.41-0.181-0.617-0.254V1.542H9.676z
	 M12,9.204c1.543,0,2.796,1.253,2.796,2.796c0,1.543-1.253,2.796-2.796,2.796c-1.542,0-2.796-1.253-2.796-2.796
	C9.204,10.458,10.458,9.204,12,9.204z"/>
</svg>
